<?xml version="1.0" ?><!DOCTYPE svg  PUBLIC '-//W3C//DTD SVG 1.1//EN'  'http://www.w3.org/Graphics/SVG/1.1/DTD/svg11.dtd'><svg enable-background="new 0 0 512 512" height="512px" id="Layer_1" version="1.1" viewBox="0 0 512 512" width="512px" xml:space="preserve" xmlns="http://www.w3.org/2000/svg" xmlns:xlink="http://www.w3.org/1999/xlink"><path d="M0,256c0,215.85,40.15,256,256,256c215.451,0,256-39.281,256-256C512,40.971,471.451,0,256,0  C39.492,0,0,40.278,0,256z" fill="#E74E38"/><path d="M169,508.712V3.275C42.902,14.973,7.053,61.851,1,203.334v105.053C7.087,450.095,43.216,496.995,169,508.712  z" fill="#F05347"/><path d="M256,512c194.215,0,246.305-31.926,254.687-196.963L35.301,358.263l8.159,102.901  C79.875,501.283,144.492,512,256,512z" fill="#E74E38"/><path d="M248.753,0.017c-1.358,0.006-2.712,0.013-4.056,0.023c-0.545,0.004-1.087,0.008-1.629,0.013  c-1.402,0.011-2.796,0.024-4.182,0.04c-0.428,0.005-0.857,0.009-1.284,0.014c-1.706,0.02-3.403,0.043-5.086,0.07  c-0.086,0.001-0.172,0.002-0.258,0.004c-5.698,0.091-11.261,0.217-16.692,0.382c-0.041,0.001-0.082,0.003-0.122,0.004  c-1.799,0.055-3.585,0.114-5.356,0.177L13.279,402.191c17.834,65.111,56.915,93.606,136.05,104.298L393.136,11.155  c-1.066-0.251-2.142-0.497-3.226-0.739c-0.298-0.066-0.602-0.13-0.901-0.196c-0.788-0.173-1.577-0.345-2.375-0.513  c-0.393-0.083-0.792-0.162-1.188-0.244c-0.713-0.147-1.427-0.294-2.147-0.437c-0.439-0.087-0.883-0.171-1.324-0.257  c-0.686-0.133-1.372-0.266-2.065-0.395c-0.468-0.087-0.941-0.172-1.413-0.258c-0.676-0.123-1.353-0.246-2.036-0.366  c-0.487-0.086-0.979-0.169-1.469-0.253c-0.678-0.116-1.358-0.231-2.043-0.344c-0.5-0.082-1.003-0.163-1.506-0.244  c-0.683-0.11-1.369-0.218-2.058-0.325c-0.515-0.08-1.032-0.158-1.551-0.236c-0.685-0.103-1.372-0.205-2.063-0.305  c-0.532-0.077-1.066-0.154-1.603-0.229c-0.693-0.098-1.389-0.194-2.089-0.288c-0.535-0.073-1.07-0.145-1.608-0.216  c-0.714-0.094-1.432-0.186-2.152-0.277c-0.537-0.068-1.074-0.136-1.615-0.203c-0.728-0.089-1.462-0.177-2.197-0.263  c-0.54-0.064-1.08-0.128-1.624-0.19c-0.756-0.086-1.519-0.17-2.282-0.254c-0.531-0.058-1.061-0.117-1.596-0.174  c-0.793-0.084-1.593-0.165-2.393-0.247c-0.514-0.052-1.026-0.106-1.543-0.157c-0.852-0.084-1.712-0.164-2.571-0.245  c-0.476-0.045-0.948-0.091-1.427-0.134c-0.99-0.09-1.99-0.177-2.991-0.263c-0.355-0.031-0.706-0.063-1.063-0.093  c-2.73-0.229-5.502-0.443-8.314-0.642c-0.464-0.033-0.934-0.063-1.399-0.095c-0.944-0.065-1.888-0.13-2.842-0.191  c-0.55-0.035-1.107-0.068-1.661-0.103c-0.881-0.055-1.762-0.11-2.651-0.162c-0.594-0.035-1.194-0.067-1.792-0.101  c-0.855-0.048-1.709-0.096-2.571-0.141c-0.627-0.033-1.259-0.064-1.89-0.096c-0.847-0.043-1.695-0.085-2.549-0.126  c-0.645-0.03-1.295-0.059-1.944-0.089c-0.847-0.038-1.694-0.076-2.548-0.112c-0.668-0.028-1.34-0.055-2.013-0.082  c-0.848-0.034-1.697-0.067-2.551-0.098c-0.682-0.025-1.367-0.05-2.053-0.074c-0.849-0.03-1.701-0.058-2.557-0.086  c-0.707-0.023-1.416-0.045-2.128-0.067c-0.851-0.026-1.705-0.05-2.563-0.074c-0.714-0.02-1.429-0.039-2.147-0.058  c-0.878-0.023-1.761-0.044-2.645-0.065c-0.707-0.017-1.414-0.033-2.126-0.048c-0.904-0.019-1.815-0.037-2.726-0.055  c-0.709-0.014-1.417-0.028-2.129-0.04c-0.922-0.016-1.851-0.03-2.779-0.045c-0.711-0.011-1.42-0.022-2.135-0.032  c-0.954-0.013-1.915-0.024-2.877-0.035c-0.701-0.008-1.399-0.017-2.104-0.024c-1.023-0.01-2.055-0.018-3.086-0.026  c-0.649-0.005-1.294-0.011-1.947-0.015c-1.149-0.007-2.309-0.012-3.468-0.017c-0.55-0.002-1.095-0.006-1.648-0.008  C259.462,0.003,257.737,0,256,0c-1.889,0-3.76,0.004-5.622,0.01C249.834,0.012,249.295,0.015,248.753,0.017z" fill="#E74E38"/><path d="M510.724,314.297L302.534,0.784C288.01,0.242,272.521,0,256,0c-21.71,0-41.635,0.406-59.924,1.353  L485.397,437.04C500.729,407.935,508.037,368.182,510.724,314.297z" fill="#D84A28"/><path d="M0.443,219.628L455.206,38.837C424.402,14.48,378.047,4.146,309.31,1.063L10.693,119.778  C4.519,146.861,1.491,179.764,0.443,219.628z" fill="#E74E38"/><path d="M509.285,336.474C511.214,312.831,512,286.133,512,256c0-2.863-0.009-5.688-0.023-8.49L0.109,237.312  C0.036,243.392,0,249.616,0,256c0,25.912,0.581,49.284,1.973,70.367L509.285,336.474z" fill="#F05347"/><path d="M248.392,511.981L29.115,70.311c-18.651,32.11-26.377,77.958-28.482,142.773l145.443,292.951  C174.569,510.12,208.371,511.797,248.392,511.981z" fill="#D84A28"/><path d="M354.109,507.608L243.014,0.053c-34.543,0.28-64.346,1.731-90.021,4.96L263.958,511.98  C298.432,511.816,328.288,510.559,354.109,507.608z" fill="#D84A28"/><path d="M26.63,436.918c14.557,27.582,36.354,45.648,68.317,57.128L479.571,65.73  c-16.21-25.031-39.827-41.17-73.652-51.187L26.63,436.918z" fill="#E74E38"/><path d="M158.708,507.652C186.312,510.786,218.502,512,256,512c170.466,0,231.439-24.595,249.471-142.204  L158.708,507.652z" fill="#C74428"/><path d="M255.088,511.999c0.305,0,0.606,0.001,0.912,0.001c35.571,0,66.372-1.072,93.013-3.835l130.555-442.44  c-16.799-25.938-41.549-42.329-77.375-52.252L255.088,511.999z" fill="#D84A28"/><g><path d="M269.399,280.103l-15.984-12.382c-4.868-4.026-11.526-9.341-11.526-19.072   c0-9.772,6.658-15.982,12.436-21.736c18.62-14.618,37.226-30.176,37.226-62.967c0-33.716-21.269-51.454-31.463-59.868h27.486   L316.422,86h-87.399c-23.981,0-58.542,5.659-83.844,26.494c-19.07,16.413-28.373,39.042-28.373,59.412   c0,34.581,26.619,69.635,73.623,69.635c4.437,0,9.294-0.435,14.181-0.889c-2.195,5.328-4.414,9.763-4.414,17.293   c0,13.733,7.073,22.156,13.312,30.133c-19.974,1.369-57.258,3.574-84.744,20.428c-26.176,15.526-34.142,38.127-34.142,54.079   c0,32.832,31.026,63.414,95.356,63.414c76.287,0,116.673-42.106,116.675-83.791C306.659,311.581,288.921,296.507,269.399,280.103z    M211.293,229.116c-38.164,0-55.452-49.212-55.452-78.906c0-11.56,2.195-23.497,9.744-32.821   c7.114-8.879,19.507-14.639,31.078-14.639c36.791,0,55.874,49.653,55.874,81.589c0,7.99-0.882,22.147-11.084,32.384   C234.316,223.823,222.378,229.116,211.293,229.116z M211.73,407.417c-47.458,0-78.062-22.647-78.062-54.133   c0-31.478,28.377-42.128,38.14-45.653c18.62-6.249,42.582-7.121,46.58-7.121c4.435,0,6.654,0,10.185,0.443   c33.737,23.948,48.381,35.885,48.379,58.56C276.952,386.972,254.323,407.417,211.73,407.417z" fill="#FFFFFF"/><polygon fill="#FFFFFF" points="372.807,228.441 372.807,184.107 350.856,184.107 350.856,228.441 306.487,228.441    306.487,250.579 350.856,250.579 350.856,295.184 372.807,295.184 372.807,250.579 417.405,250.579 417.405,228.441  "/></g><g opacity="0.5"><path d="M316.316,86.066l-28.743,18.012h-27.486c10.194,8.414,31.463,26.152,31.463,59.868   c0,32.791-18.605,48.349-37.226,62.967c-5.778,5.754-12.436,11.965-12.436,21.736c0,9.731,6.658,15.046,11.526,19.072   l15.984,12.382c19.522,16.404,37.26,31.478,37.254,62.106C306.65,383.894,266.265,426,189.978,426   c-32.662,0-56.721-7.892-72.51-19.951l105.589,105.589C233.557,511.885,244.528,512,256,512   c206.698,0,252.415-36.159,255.789-230.461L316.316,86.066z M417.405,250.579h-44.598v44.605h-21.951v-44.605h-44.369v-22.139   h44.369v-44.333h21.951v44.333h44.598V250.579z" fill="#741112"/><path d="M190.428,241.541c-20.456,0-37.047-6.643-49.267-16.993l64.109,64.109c2.98-0.224,5.744-0.408,8.237-0.579   c-6.238-7.977-13.312-16.4-13.312-30.133c0-7.529,2.219-11.965,4.414-17.293C199.723,241.107,194.866,241.541,190.428,241.541z" fill="#741112"/><path d="M211.73,407.417c42.593,0,65.222-20.445,65.222-47.904c0.002-22.675-14.642-34.611-48.379-58.56   c-3.531-0.443-5.75-0.443-10.185-0.443c-3.998,0-27.96,0.872-46.58,7.121c-9.763,3.525-38.14,14.174-38.14,45.653   C133.668,384.771,164.272,407.417,211.73,407.417z" fill="#741112"/><path d="M196.663,102.75c-11.571,0-23.964,5.761-31.078,14.639c-7.549,9.324-9.744,21.261-9.744,32.821   c0,29.694,17.288,78.906,55.452,78.906c11.084,0,23.023-5.294,30.159-12.393c10.202-10.237,11.084-24.394,11.084-32.384   C252.537,152.403,233.454,102.75,196.663,102.75z" fill="#741112"/></g></svg>